<?xml version="1.0" encoding="UTF-8" standalone="no"?>
<svg
   xmlns:dc="http://purl.org/dc/elements/1.1/"
   xmlns:cc="http://creativecommons.org/ns#"
   xmlns:rdf="http://www.w3.org/1999/02/22-rdf-syntax-ns#"
   xmlns:svg="http://www.w3.org/2000/svg"
   xmlns="http://www.w3.org/2000/svg"
   width="210mm"
   height="297mm"
   viewBox="0 0 210 297"
   version="1.1"
   id="svg1303">
  <defs
     id="defs1297" />
  <metadata
     id="metadata1300">
    <rdf:RDF>
      <cc:Work
         rdf:about="">
        <dc:format>image/svg+xml</dc:format>
        <dc:type
           rdf:resource="http://purl.org/dc/dcmitype/StillImage" />
        <dc:title></dc:title>
      </cc:Work>
    </rdf:RDF>
  </metadata>
  <g
     id="layer1">
    <g
       id="g1364"
       transform="translate(-245.15755,11.618764)">
      <path
         style="fill:#c9d1d3;stroke-width:0.264583"
         d="m 257.98474,136.74629 0.0902,-13.83634 7.68931,-0.32073 c 4.22911,-0.1764 9.58692,-0.49132 11.90625,-0.69982 2.31932,-0.2085 6.71726,-0.50335 9.77319,-0.65522 3.05594,-0.15187 6.84556,-0.41797 8.42137,-0.59132 2.35598,-0.25919 2.90375,-0.25267 3.08257,0.0366 0.16251,0.26296 0.64189,0.30996 1.89738,0.18605 0.92396,-0.0912 3.60881,-0.17937 5.96633,-0.19594 l 4.28639,-0.0301 0.1551,5.24994 c 0.14607,4.9443 0.0686,6.46333 -0.68569,13.45202 -0.15707,1.45521 -0.34838,3.74716 -0.42513,5.09323 -0.0768,1.34607 -0.25145,2.4474 -0.3882,2.4474 -0.13675,0 -0.18646,0.1006 -0.11047,0.22356 0.076,0.12296 -1.67315,0.29976 -3.88699,0.39288 -2.21383,0.0931 -4.44109,0.29018 -4.94945,0.4379 -0.50836,0.14772 -1.99664,0.27469 -3.30729,0.28216 -1.31065,0.007 -3.21644,0.12254 -4.23508,0.25571 -1.01865,0.13317 -6.0788,0.36354 -11.24479,0.51192 -12.31275,0.35366 -19.1921,0.78723 -23.37354,1.47313 l -0.75165,0.1233 z m 38.36899,6.43145 c 2.77407,-0.79422 6.00534,-4.04777 7.32851,-7.37901 0.54748,-1.37834 0.61163,-1.9004 0.51314,-4.17566 -0.12881,-2.97572 -0.65896,-4.46402 -2.0831,-5.84791 -0.49031,-0.47645 -1.31242,-0.97667 -1.82691,-1.1116 -3.7509,-0.9837 -4.58584,-1.1201 -6.27288,-1.02478 -4.53432,0.25622 -8.27013,4.04541 -8.70698,8.83142 -0.3155,3.4564 0.7061,6.62457 2.85906,8.86654 0.97734,1.01775 1.87919,1.56605 3.64475,2.21591 0.54014,0.19882 3.35023,-0.033 4.54441,-0.37491 z m 44.06833,4.99151 c 0.57142,-3.34997 0.5705,-19.11484 -10e-4,-23.51218 -0.23656,-1.81901 -0.51216,-3.70195 -0.61245,-4.1843 l -0.18234,-0.877 5.5266,0.0418 c 14.0929,0.10651 43.75292,-0.21127 45.61098,-0.48869 1.09141,-0.16295 2.44411,-0.29995 3.00601,-0.30444 1.00902,-0.008 1.01973,0.002 0.86742,0.85172 -0.86565,4.82715 -1.54159,13.12326 -1.91662,23.52386 l -0.15894,4.40772 -6.25675,0.12129 c -5.79952,0.11243 -17.52736,0.58196 -31.25987,1.25151 -5.07823,0.2476 -10.27238,0.70248 -13.78395,1.20716 l -1.21625,0.1748 0.37752,-2.21322 z m 28.76923,-5.36755 c 2.47852,-1.03559 5.08589,-3.80174 6.37288,-6.76096 0.60913,-1.40058 0.68232,-4.35779 0.14644,-5.91626 -0.77013,-2.23971 -2.78145,-3.68016 -6.33703,-4.5384 -2.76676,-0.66783 -4.30011,-0.58472 -6.76549,0.36671 -3.03086,1.16967 -3.94602,1.8601 -4.81222,3.63055 -0.66552,1.36028 -0.74175,1.79736 -0.75223,4.31298 -0.0223,5.35509 1.56476,7.63948 6.46777,9.3096 0.9945,0.33876 4.4985,0.0894 5.67988,-0.40422 z"
         id="path1378" />
      <path
         style="fill:#d2a78e;stroke-width:0.264583"
         d="m 293.64215,250.69761 c -0.7136,-0.99954 -3.92263,-9.88024 -4.38301,-10.3168 -0.46038,-0.43656 -5.36102,-7.80643 -7.21078,-10.57132 -2.59657,-3.8812 -4.63301,-7.87423 -6.87498,-12.46957 -7.31992,-15.00359 -7.11508,-21.34686 -11.79666,-42.36886 -1.39778,-6.27649 -2.821,-9.493 -1.9261,-13.75132 l 0.60014,-3.11702 3.21028,-0.15249 c 15.98997,-0.75955 26.71686,0.36174 39.72422,-1.09207 2.47385,-0.2765 5.94032,-0.6766 7.39553,-0.7638 1.45521,-0.0872 2.87688,0.0445 3.16792,-0.0718 0.29104,-0.11636 0.7777,-0.80353 1.35978,-0.98625 2.67959,-0.84112 3.31616,-2.31472 2.23839,-4.89419 -0.4013,-0.96045 -1.09294,-1.0296 -0.30422,-7.54858 0.15057,-1.24448 0.49058,-3.36916 0.49058,-4.16578 0,-0.79664 -0.17469,-3.52044 -0.0375,-4.68079 0.13722,-1.16035 -0.91306,-3.67987 0.3963,-4.47323 l 1.8761,-2.54546 4.05805,0.43957 c 4.21068,0.45611 7.16984,0.91591 7.2169,2.35008 0.0177,0.54059 -0.11161,6.50964 -0.0202,13.13083 0.18329,13.27785 -0.41875,12.50305 1.30493,13.6634 0.75325,0.50707 1.60406,-0.0489 3.01977,-0.0833 0.94984,-0.0231 3.20868,0.0543 6.41014,0.20453 10.75046,0.50448 26.62041,0.56556 40.9173,0.25835 13.62991,-0.29288 13.62578,-0.36048 14.78267,-0.93008 2.11929,-1.04344 2.36557,-1.94988 1.6008,-4.07662 -0.3624,-1.0078 -0.35451,-2.282 -0.0196,-3.49579 0.28229,-1.02302 -1.48174,-3.16797 0.17231,-10.38688 l 1.07505,-10.67728 3.15663,-0.53786 c 1.1653,-0.19855 2.78872,0.21525 3.5527,0.21438 2.38238,-0.39136 2.29273,-0.0477 3.86233,0.10018 1.27331,0.10691 4.00524,0.21114 6.07095,0.23162 4.56257,0.0452 9.65584,-2.90617 8.06549,-1.3473 -2.14883,2.95795 -5.47495,4.86876 -1.71714,4.62231 2.15229,-0.045 4.21398,-0.80362 6.11157,-2.00665 3.09844,-0.36309 5.81665,-0.81488 9.18134,-1.07862 2.48683,-0.0417 7.50226,-0.58997 7.26861,2.86875 l -0.1826,2.70295 1.25103,2.46254 c 2.13332,4.19927 -4.26811,12.88277 -10.96782,21.86636 -1.0668,1.43047 -4.1132,2.23044 -4.1132,2.34578 0,0.23536 0.70887,3.01218 -0.71681,4.59024 1.16635,1.61083 0.56814,6.48725 -0.94122,4.0751 -2.6758,3.54549 -2.43703,2.82021 0.86428,3.93087 0,0.39118 -0.74562,7.30515 -2.51273,10.99623 -4.39456,9.17922 -14.84575,29.10641 -19.45713,34.95554 -9.02297,11.44487 -16.49521,18.8058 -25.26517,24.21552 -6.7049,1.70783 -8.04043,6.98795 -24.68216,13.36319 -11.75056,3.56981 -15.42434,4.89864 -23.95848,7.22669 -23.13381,-0.82362 -26.89406,9.40307 -38.54725,-5.54765 z M 270.85763,149.34716 c 0.19099,-0.0764 0.41919,-0.067 0.50711,0.0209 0.0879,0.0879 -0.0684,0.15045 -0.34726,0.13896 -0.30823,-0.0127 -0.37092,-0.0754 -0.15985,-0.15985 z m 86.51875,-0.52917 c 0.19099,-0.0764 0.4192,-0.067 0.50712,0.0209 0.0879,0.0879 -0.0684,0.15045 -0.34727,0.13896 -0.30822,-0.0127 -0.37092,-0.0754 -0.15985,-0.15985 z m -62.70625,-0.52916 c 0.19099,-0.0764 0.4192,-0.067 0.50712,0.0209 0.0879,0.0879 -0.0684,0.15046 -0.34727,0.13897 -0.30823,-0.0127 -0.37092,-0.0754 -0.15985,-0.15985 z m 76.72917,0 c 0.19099,-0.0764 0.4192,-0.067 0.50712,0.0209 0.0879,0.0879 -0.0684,0.15046 -0.34727,0.13897 -0.30823,-0.0127 -0.37092,-0.0754 -0.15985,-0.15985 z m -61.73061,-1.14218 c -0.0899,-0.14552 -0.0374,-0.26458 0.11668,-0.26458 0.15411,0 0.2802,0.11906 0.2802,0.26458 0,0.14552 -0.0525,0.26458 -0.11668,0.26458 -0.0642,0 -0.19026,-0.11906 -0.2802,-0.26458 z m 31.10944,-7.03351 c 0.0127,-0.30822 0.0754,-0.37091 0.15985,-0.15985 0.0764,0.191 0.067,0.4192 -0.0209,0.50712 -0.0879,0.0879 -0.15045,-0.0684 -0.13896,-0.34727 z m -82.81459,-3.43958 c 0.0127,-0.30822 0.0754,-0.37092 0.15985,-0.15985 0.0764,0.19099 0.067,0.4192 -0.0209,0.50712 -0.0879,0.0879 -0.15046,-0.0684 -0.13897,-0.34727 z m 0.0548,-3.9467 c 0.002,-0.7276 0.0534,-0.99386 0.11419,-0.59167 0.0608,0.40218 0.0592,0.99749 -0.004,1.32291 -0.0628,0.32542 -0.11256,-0.004 -0.11057,-0.73124 z m -0.009,-2.38125 c 0.003,-0.58208 0.0571,-0.78905 0.12041,-0.45994 0.0633,0.32912 0.0609,0.80537 -0.005,1.05834 -0.0662,0.25296 -0.118,-0.0163 -0.11506,-0.5984 z m 41.93897,-9.57984 c 0.32912,-0.0633 0.80537,-0.0609 1.05833,0.005 0.25297,0.0662 -0.0163,0.118 -0.59839,0.11506 -0.58209,-0.003 -0.78906,-0.0571 -0.45994,-0.1204 z m 13.70542,-3.47302 c -0.83324,0.16892 -1.82528,-4.51103 -2.06179,-4.51103 -20.89204,-0.82644 -34.48142,0.0594 -42.91526,0.41998 -6.55183,0.3362 -5.62088,-0.0681 -4.62959,-2.0435 0.27093,-0.5399 0.017,-2.03782 0.42118,-3.27475 0.40416,-1.23693 1.56929,-4.79349 2.20346,-6.10318 0.63416,-1.30969 3.52496,-2.847315 3.95195,-4.375284 2.80916,-10.05228 3.19407,-18.336367 8.03194,-28.293556 1.32122,-2.719326 4.94505,-6.711753 5.52841,-7.94868 0.58336,-1.236928 2.4599,-6.142893 3.74468,-8.762268 2.19233,-4.469661 2.2927,-3.624405 4.66348,-6.231707 1.38936,-1.527969 3.41659,-5.413448 4.47178,-6.647422 3.51666,-4.112487 8.3626,-6.022379 10.80978,-6.635453 21.75862,-11.359451 42.92724,-13.986044 76.16734,1.237226 38.45953,8.525232 14.72825,23.48889 23.41201,29.559423 35.83655,-3.258886 15.33571,40.573641 24.36875,41.210641 1.21275,0.0757 -4.25671,8.74947 -4.29827,8.84508 -0.1728,0.39753 -1.10778,6.18047 -1.35134,6.28233 -0.14552,0.0609 -5.66962,-2.40766 -8.289,-2.51166 -2.61937,-0.10406 -5.16919,1.31746 -6.01755,1.44856 -0.84836,0.13106 -3.47809,-1.19507 -5.49257,-1.2365 l -3.66268,-0.0753 -0.11383,-0.77525 c -0.0626,-0.42639 -0.006,-1.25574 0.12608,-1.843 -30.31878,-3.63463 -26.40017,-4.04423 -27.6721,-3.89157 l -26.36593,0.58371 -6.3375,1.00289 c -3.24617,0.5137 -4.94266,0.84077 -6.09823,1.48595 -1.56841,0.87568 -2.45316,0.0413 -2.49266,2.69337 -0.019,1.27347 -1.96853,1.73179 -2.04343,1.80666 -0.0749,0.0749 -3.66093,4.37695 -5.68382,4.52027 -9.42076,0.36058 -7.28862,-3.29525 -12.37529,-5.93598 z m 25.99553,2.1565 c 0.191,-0.0764 0.4192,-0.067 0.50712,0.0209 0.0879,0.0879 -0.0684,0.15045 -0.34726,0.13897 -0.30823,-0.0127 -0.37092,-0.0754 -0.15986,-0.15985 z m 51.7251,-8.81859 c 0.0838,1.47231 -8.13315,0.44292 -8.42424,0.5699 -5.13157,-0.34372 14.61974,2.29078 8.42424,-0.5699 z"
         id="path1376" />
      <path
         style="fill:#6a7d7d;stroke-width:0.264583"
         d="m 275.14057,158.88706 c -0.80037,-0.047 -3.95552,-0.21813 -7.01146,-0.38034 -3.05594,-0.16221 -6.0325,-0.34706 -6.61458,-0.41077 -2.96831,-0.32488 -5.32334,-0.69602 -5.67877,-0.89492 -0.21863,-0.12235 -1.41159,-0.1616 -2.65104,-0.0872 -2.15967,0.12961 -2.30428,0.10242 -3.47217,-0.65262 -1.63492,-1.057 -2.27805,-2.46734 -2.88868,-6.33476 -0.95015,-6.01773 -1.2573,-21.94873 -0.49829,-25.84472 0.13945,-0.71576 0.3611,-2.34105 0.49257,-3.61175 0.27033,-2.61296 0.91885,-4.14727 2.1121,-4.99694 0.81843,-0.58277 5.70454,-2.20467 7.55719,-2.50855 0.58209,-0.0955 2.60615,-0.28365 4.49792,-0.41817 1.89177,-0.13452 3.73724,-0.29713 4.10104,-0.36135 0.3638,-0.0642 1.79255,-0.19398 3.175,-0.28836 1.38245,-0.0944 5.01386,-0.52914 8.06979,-0.96612 3.05594,-0.43699 5.73485,-0.7773 5.95313,-0.75623 1.05879,0.10218 7.35214,0.3147 10.05417,0.33951 2.12069,0.0195 3.72419,-0.12504 5.29166,-0.47691 1.82881,-0.41053 3.3364,-0.50708 8.06979,-0.51679 5.85456,-0.012 12.52594,0.25495 12.7825,0.51152 1.50405,0.43507 3.13505,1.15329 3.92327,2.42624 0.77156,1.31656 0.84963,2.52335 0.33309,5.14887 -0.17041,0.86618 -0.26387,1.61719 -0.20768,1.66891 0.0906,0.0834 2.42994,-0.0815 7.54566,-0.53197 l 1.62267,-0.14288 0.16639,-1.04059 c 0.0915,-0.57232 0.0927,-1.50166 0.003,-2.06519 -0.22946,-1.43494 0.46923,-2.79591 1.84566,-3.59516 1.48105,-0.85999 5.96671,-1.37259 15.11297,-1.72702 3.92906,-0.15226 8.92969,-0.40185 11.1125,-0.55465 3.37897,-0.23653 23.23878,-0.69893 31.75,-0.73925 3.3193,-0.0157 5.58808,0.32741 7.86991,1.19024 2.55878,0.96754 3.64541,2.61242 3.15823,4.7807 -0.12917,0.5749 -0.18364,1.39414 -0.12104,1.82053 l 0.11381,0.77525 3.74996,0.0682 c 2.06248,0.0375 4.384,-0.0354 5.15893,-0.16207 1.73167,-0.28307 12.0869,-0.0474 14.00124,0.37725 3.14726,0.69811 4.66167,4.03076 3.14999,6.51011 -0.55674,0.91313 -3.18732,1.80278 -3.91307,1.80443 -0.23877,5.3e-4 2.9604,0.16058 2.38922,0.41524 -0.84377,0.3762 -5.59162,0.50498 -8.58709,0.47545 -2.02772,-0.02 -4.55031,0.32893 -5.82362,0.22153 -2.80984,0.20933 -2.28314,0.20614 -3.88241,0.21327 -0.76398,7.9e-4 -2.35331,0.0767 -3.53184,0.16842 l -2.14279,0.16684 -0.16212,9.95189 c -0.12063,7.405 -0.25921,10.30375 -0.54151,11.32677 -0.33493,1.21379 -0.33129,1.50863 0.0311,2.51643 0.76477,2.12674 -0.19905,4.38252 -2.31835,5.42596 -1.15688,0.5696 -1.58324,0.59446 -15.21315,0.88734 -14.29689,0.30721 -31.31829,0.17315 -42.06876,-0.33133 -3.20145,-0.15023 -6.59797,-0.25427 -7.5478,-0.2312 -1.41571,0.0344 -1.89258,-0.0695 -2.64583,-0.57661 -1.72369,-1.16035 -1.69551,-0.947 -1.87881,-14.22485 -0.0914,-6.62119 -0.1807,-12.48083 -0.19843,-13.02142 -0.0471,-1.43417 -0.60188,-1.6402 -4.83436,-1.79524 l -3.61149,-0.13229 -0.17391,2.77812 c -0.0957,1.52797 -0.28619,3.7275 -0.42341,4.88785 -0.13723,1.16035 -0.2495,2.76151 -0.2495,3.55815 0,0.79662 -0.12319,2.46662 -0.27376,3.7111 -0.78872,6.51898 -0.77813,6.31452 -0.37683,7.27497 1.07777,2.57947 -0.24169,5.39709 -2.92128,6.23821 -0.58209,0.18272 -1.29646,0.42741 -1.5875,0.54377 -0.29105,0.11636 -1.7198,0.28291 -3.175,0.3701 -1.45521,0.0872 -4.6699,0.38483 -7.14375,0.6614 -7.13156,0.79729 -13.43663,1.14582 -21.69584,1.19932 -4.2201,0.0273 -8.32776,0.0113 -9.12812,-0.0357 z m -11.64167,-8.94588 c 4.6189,-0.45823 8.69497,-0.66004 19.18229,-0.94969 8.3601,-0.2309 14.90156,-0.62165 17.99167,-1.07472 1.01865,-0.14935 3.54873,-0.34239 5.6224,-0.42898 l 3.77031,-0.15743 v -1.89535 c 0,-1.04243 0.11468,-2.54228 0.25485,-3.33299 0.55922,-3.15472 0.92775,-9.16563 0.93166,-15.19599 l 0.004,-6.35 -4.10105,0.0694 c -2.25557,0.0381 -4.96452,0.0977 -6.01988,0.13229 -1.05537,0.0346 -1.91857,-0.0263 -1.91823,-0.13551 7.9e-4,-0.27344 -1.70161,-0.24842 -4.01514,0.059 -1.06555,0.1416 -4.55675,0.38405 -7.75821,0.53878 -3.20145,0.15473 -7.69523,0.45182 -9.98617,0.66021 -2.29094,0.20838 -7.58922,0.52252 -11.77396,0.69811 l -7.60862,0.31923 -0.0901,13.86085 -0.0901,13.86084 0.88382,-0.1487 c 0.48609,-0.0818 2.61022,-0.31997 4.72027,-0.52931 z m 37.04167,-9.5414 c 0.34178,-0.36381 0.68094,-0.66146 0.7537,-0.66146 0.0728,0 -0.14734,0.29765 -0.48912,0.66146 -0.34177,0.3638 -0.68094,0.66145 -0.7537,0.66145 -0.0728,0 0.14734,-0.29765 0.48912,-0.66145 z m 45.64063,9.27291 c 5.60265,-0.56599 7.04518,-0.64833 18.91771,-1.07977 6.03911,-0.21945 12.52205,-0.51558 14.40653,-0.65806 1.88448,-0.14247 5.59265,-0.25904 8.24037,-0.25904 h 4.81405 l 0.16097,-4.16719 c 0.35114,-9.09049 0.74168,-14.71384 1.36211,-19.6132 0.35712,-2.82 0.6493,-5.14796 0.6493,-5.17325 0,-0.0253 -1.45852,0.12311 -3.24115,0.32978 -4.05648,0.47029 -48.73484,0.85305 -51.18099,0.43847 -0.83965,-0.14231 -0.84275,-0.13868 -0.60113,0.7038 1.36455,4.75793 1.60071,25.38256 0.34013,29.70455 -0.13463,0.46158 -0.0403,0.4885 1.14058,0.32565 0.70804,-0.0976 2.95422,-0.34592 4.99152,-0.55174 z m 26.45833,-9.40521 c 0.26339,-0.29104 0.53842,-0.52916 0.61118,-0.52916 0.0728,0 -0.0832,0.23812 -0.3466,0.52916 -0.26339,0.29105 -0.53842,0.52917 -0.61118,0.52917 -0.0728,0 0.0832,-0.23812 0.3466,-0.52917 z m -14.15521,-12.00614 c 0,-0.0549 0.20836,-0.2633 0.46302,-0.46302 0.41965,-0.32911 0.42901,-0.31975 0.0999,0.0999 -0.34564,0.44073 -0.56292,0.58089 -0.56292,0.36313 z"
         id="path1374" />
      <path
         style="fill:#5a6393;stroke-width:0.264583"
         d="m 291.05767,143.21571 c -1.75059,-0.62182 -3.78179,-2.54903 -4.67564,-4.43627 -1.40036,-2.9567 -1.45565,-7.01618 -0.13276,-9.7489 1.98759,-4.10582 6.72929,-6.28301 11.08036,-5.08763 0.82013,0.22532 1.99914,0.54308 2.62001,0.70614 1.44496,0.37949 2.77212,1.54959 3.54844,3.1285 0.52747,1.07278 0.61236,1.64953 0.61329,4.16639 10e-4,2.84147 -0.026,2.976 -0.98852,4.92643 -2.46537,4.99557 -7.86716,7.83648 -12.06518,6.34534 z m 72.58603,-0.0111 c -1.54972,-0.42356 -3.71421,-1.55665 -4.40807,-2.30758 -1.72229,-1.86397 -2.46723,-4.54758 -2.19448,-7.90555 0.31303,-3.85368 1.60671,-5.52659 5.39144,-6.97184 2.58292,-0.98632 4.30513,-1.06878 7.19687,-0.34458 4.62297,1.15777 6.36421,3.10574 6.42169,7.18413 0.0242,1.71896 -0.0858,2.22458 -0.82269,3.78026 -1.11256,2.34883 -3.36988,4.71615 -5.49423,5.76196 -1.73956,0.85639 -4.54317,1.22611 -6.09053,0.8032 z"
         id="path1372" />
      <path
         style="fill:#6b422a;stroke-width:0.264583"
         d="m 362.89403,257.0495 c -0.66813,-1.0863 -0.45752,-2.41202 -0.28959,-3.1094 -0.77741,-4.82928 -1.60582,3.10274 -0.14352,-0.36254 5.26953,-0.57014 15.86792,-10.83323 20.92837,-13.80431 0.6983,-0.40999 0.91433,-0.34805 1.17246,-0.5258 4.59358,-3.1632 10.66184,-9.03321 13.69627,-11.53778 0.0949,-0.0784 -0.0473,0.0419 0.0411,-0.0471 2.76196,-2.78254 3.05547,-2.47546 5.0692,-4.51512 0.0783,-0.0793 2.42012,-3.21321 2.75071,-3.75013 1.30299,-2.11621 2.09744,-3.49187 6.46018,-9.37355 6.49049,-8.75023 11.74635,-15.67446 14.94435,-25.15529 1.98395,-3.03894 3.21072,-7.16641 4.52017,-10.48153 0.43998,-1.06696 0.58446,-1.93092 0.53415,-2.08185 -0.0503,-0.15093 -0.40798,-0.37148 -1.0079,-0.32816 -1.68033,1.63067 -4.66651,2.80346 -6.41011,3.14734 -0.0728,-0.005 -0.40205,0.0759 -0.73175,0.18053 -0.32971,0.10464 -1.01246,0.054 -1.51722,-0.11262 -0.93346,-0.30807 -2.086,-1.47358 -1.84415,-1.8649 -0.002,-0.42015 -0.39818,-0.64813 -0.40479,-1.07674 0.43385,-1.10424 0.48819,-1.70122 1.39794,-2.50892 0.64834,-0.57069 1.52177,-1.2147 1.94095,-1.43113 0.41918,-0.21643 0.82168,-0.45761 0.89444,-0.53595 0.0728,-0.0783 1.23362,-0.78921 2.57969,-1.57971 1.34607,-0.79049 2.44739,-1.58051 2.44739,-1.75559 0,-0.17508 0.50602,-0.76163 1.12448,-1.30344 2.11335,-3.61535 6.46444,-8.39426 7.94201,-10.84017 -0.17941,0.0924 0.17074,-0.55208 0.77811,-1.43225 2.0738,-2.87922 3.48788,-4.99113 4.55921,-7.76453 1.30748,-2.01335 2.30614,-3.88372 2.77561,-6.68133 0.004,-3.80866 -0.46491,-4.69957 -1.26348,-5.49888 0.002,-0.12126 -0.0854,-0.29986 -0.19357,-0.39687 -0.10821,-0.097 -0.10944,0.002 -0.003,0.22048 -1.18191,-1.41342 -2.0242,-1.57663 -2.84594,-2.05719 -1.40823,-0.83087 -4.25184,-0.62746 -7.02743,-0.0962 -5.12085,0.46408 -6.90799,2.49825 -9.62521,4.18074 -0.75922,0.0733 -1.74861,0.22768 -2.19863,0.34308 -1.07746,0.27629 -2.27612,-0.23731 -2.69392,-1.15428 -0.39209,-0.86055 -0.28911,-1.34702 -0.0597,-1.74523 0.90584,-2.16373 1.69557,-3.18649 2.57185,-3.51982 -0.17759,-0.0655 0.0832,-0.08 0.47086,-0.30552 0.86534,-0.5034 1.20326,-0.72163 1.90875,-1.11045 3.2992,-1.47564 2.7246,-1.32684 4.0175,-1.91474 1.88807,-0.68124 1.40135,-0.90499 2.66905,-1.58475 2.75723,-1.33563 4.38858,-1.73103 6.2189,-1.00412 0.40966,0.1627 4.32695,-0.29074 4.739,-0.23662 0.41204,0.0541 4.44261,1.96157 4.83093,2.23498 0.38831,0.27341 0.1367,1.31532 1.62298,2.71222 3.71815,5.57585 3.94825,8.3177 2.15425,14.76746 -4.13129,9.70401 -7.19466,14.55908 -11.6191,22.59082 -0.52785,0.82183 -0.35365,1.22978 -2.14635,3.43143 -2.26502,2.73727 -2.83417,4.9762 -2.85149,5.47869 -0.0666,1.20582 -0.88081,5.29165 -1.05475,5.29285 -0.094,5.3e-4 -0.19295,0.38761 -0.21984,0.8599 0.16663,1.09941 -1.56899,5.48178 -1.74338,6.21087 -0.30179,0.82595 -0.68478,1.66452 -1.57152,3.46365 -2.9406,6.29992 -4.9341,14.86256 -9.26839,19.62685 -1.32876,2.81055 -3.9169,6.27666 -5.1435,8.37414 -0.8778,1.50104 -1.75514,2.4394 -2.62475,3.65377 -9.41544,13.14829 -10.26499,13.28831 -24.28246,24.93649 -7.20049,5.98344 -17.85907,18.12778 -26.97704,20.58649 -0.85319,-0.80224 0.29368,-7.56635 0.002,-7.70822 z M 289.4462,244.14611 c -1.15097,-0.88279 -2.50377,-5.50519 -7.67037,-11.18839 -0.24553,-0.27086 -2.23184,-2.95526 -3.857,-5.77694 -7.10145,-14.13638 -13.54692,-35.46739 -14.84137,-44.15054 -1.67069,-7.82234 -2.08175,-10.57748 -2.92376,-16.96593 -0.0601,-0.43656 -0.24826,-2.20712 -0.41817,-3.93458 -0.28584,-2.90608 -0.18709,-3.95201 -0.20329,-4.27043 0.71527,0.0169 1.06461,0.0971 1.3043,0.11761 0.46481,0.0398 0.65542,0.11466 1.23244,0.16499 0.0166,0.40829 0.10426,0.40965 0.1122,1.90317 0.009,3.3133 1.45024,8.86199 2.626,16.59771 0.66966,4.40589 2.09774,7.84055 2.52475,11.11739 0.63803,4.21616 2.23189,8.17269 3.4978,11.76355 3.508,9.95068 4.6666,14.05681 12.34554,27.41174 2.9681,5.16199 2.80821,4.08581 6.60913,10.92843 3.58633,10.14811 3.6247,10.31104 0.69492,7.07461 z M 316.796,190.6496 c -5.15626,-1.50991 -10.0743,-3.95347 -12.18284,-8.00151 -0.63008,-1.33355 -1.29305,-3.6311 -1.27755,-6.6619 0.0139,-2.70953 0.12093,-3.59107 0.59242,-4.87738 1.29938,-2.22627 3.33268,-6.05192 6.6785,-7.81862 0.64836,-0.32526 1.50625,-0.89821 1.90644,-1.27323 3.88307,-2.05833 6.43487,-4.83068 10.20473,-4.90974 0.96415,-0.0432 2.66216,0.32958 3.23028,0.62673 0.74236,0.66433 1.65512,2.36661 0.66291,3.22205 -0.36073,0.35868 -1.68334,-1.05797 -3.14859,-1.44872 -0.45597,0.0903 -1.34525,0.59058 -1.97618,1.11169 -4.65176,3.56575 -6.29103,3.85716 -8.7283,10.41079 -0.25747,0.69026 -0.42267,2.00396 -0.43054,3.42373 -0.0109,1.96805 0.15274,2.25993 0.49068,2.67184 0.4265,0.51986 0.38232,0.42519 1.84128,1.49936 2.49556,1.39049 3.83068,1.6427 9.42922,1.78121 4.50771,0.11152 5.43734,-0.0569 7.54062,-0.40439 1.39783,-0.23094 2.32507,-0.14405 3.36298,-0.61451 4.0505,-1.83598 4.80063,-3.56049 9.02463,-4.57224 4.77144,-0.19078 5.93951,-4.46296 7.04533,-5.74537 0.47775,-0.666 0.69938,-0.85431 1.19665,-0.66349 0.29214,0.11211 0.35126,0.37941 0.22601,1.02179 -0.0933,0.47848 -0.28704,0.81964 -0.32461,0.94688 -0.0555,0.18781 0.11838,-0.34047 -0.13422,0.35853 0.019,0.50762 -1.28151,2.74939 -1.56007,3.00786 -0.51996,0.47634 -0.8923,0.91915 -0.82743,0.98401 -0.83433,0.67444 -0.70699,0.81223 -1.30708,1.7029 -0.21601,0.12089 -0.37144,0.28864 -0.3454,0.37277 -0.43366,0.95577 -1.07008,1.86165 -1.22828,2.89921 0.22027,0.22026 -1.1089,2.35642 -2.96788,3.7763 -3.6973,2.35137 -7.28827,5.24853 -11.01454,6.52032 -1.24567,0.4213 -3.18557,1.21856 -7.07298,1.27837 -4.23757,-0.15087 -6.31059,-0.382 -8.90619,-0.62524 z m 105.03652,-43.25222 c 1.84846,-2.16612 2.06496,-2.47359 4.32062,-4.61651 3.39237,-2.21367 9.47242,-7.0004 12.45901,-7.54065 0.66553,1.5538 -5.9308,7.29361 -6.13186,7.2361 -0.17025,-0.0975 -0.21691,-0.0754 -0.10368,0.049 -7.09405,6.42739 -14.42638,14.83359 -3.12836,8.74429 3.20577,-2.17036 -1.3253,4.48743 -2.95663,6.40447 -10.77844,5.54229 -6.47102,-7.8181 -4.4591,-10.2767 z M 262.53385,109.79747 c 0.31542,-2.05987 0.47392,-3.96952 0.83052,-5.7779 0.21821,-1.09141 0.44886,-2.68681 0.51255,-3.54534 2.52928,-7.956155 4.62338,-12.814782 6.88102,-19.628443 0.64953,-1.121254 1.03143,-2.68314 1.50687,-3.458641 2.08852,-3.354372 2.26936,-6.100553 3.25621,-7.822235 1.7546,-2.247538 2.29864,-4.535959 4.02079,-6.685795 0.44415,-0.726162 2.5915,-3.808454 2.60079,-3.900336 3.24982,-4.288422 3.92616,-5.6187 4.19893,-7.660509 0.13973,-0.100256 0.44385,-1.417096 0.59721,-1.695432 0.21365,-0.387742 0.27087,-1.413291 1.34403,-1.451049 0.86724,-0.03052 2.4243,-0.330111 2.56963,-0.559639 0.21704,1.826237 -1.34592,4.237837 -2.15186,5.819668 -0.36411,0.220672 -1.78614,4.171994 -1.93406,4.285671 -0.18535,0 -0.26296,0.07403 -0.17248,0.164515 -0.87325,2.227803 -1.85615,4.035342 -2.65603,5.327031 -0.79104,1.682611 -1.33232,3.295004 -2.03201,4.778157 -3.14026,3.402102 -3.67092,7.749905 -4.95958,10.888144 -1.63541,1.135657 -3.01729,7.909628 -3.29101,8.686646 -1.61593,3.110684 -2.2683,6.985525 -3.14981,10.107585 -0.0358,0.360363 -3.54394,11.387242 -4.35686,14.646232 -0.65205,0.0764 -1.33621,0.0621 -2.72821,0.2964 l -1.00442,0.16718 0.11774,-2.98191 z"
         id="path1370" />
      <path
         style="fill:#352114;stroke-width:0.264583"
         d="m 335.0687,275.44922 c -0.10862,0.43448 -1.74625,-0.19595 -2.91042,-0.21347 -2.01558,-0.0303 -9.50585,-1.01899 -12.03854,-1.58903 -0.65485,-0.14737 -2.11207,-0.57782 -3.23827,-0.95652 l -2.04764,-0.68855 -1.05093,1.10476 c -0.67467,0.70922 -1.1967,1.04881 -1.45809,0.94851 -0.22394,-0.0859 -0.40716,-0.0409 -0.40716,0.10004 0,0.49866 -1.49566,0.24709 -2.52672,-0.42498 -0.98791,-0.64394 -4.38997,-5.07635 -5.5695,-7.25625 -0.27558,-0.50932 -1.87066,-2.35484 -3.54461,-4.10114 -3.20382,-3.3423 -4.87276,-5.47714 -4.55603,-5.82793 0.10426,-0.11546 0.0687,-0.14158 -0.0789,-0.0581 -0.31483,0.17807 -3.46161,-4.77732 -4.495,-7.0785 -1.67105,-3.72116 -2.11971,-5.81588 -1.31205,-6.12581 0.57508,0.0355 2.10353,2.0219 2.37773,2.51865 0.59294,0.981 1.26831,2.8771 2.03322,4.32364 0.82818,1.48157 1.26078,2.07811 1.9669,3.05941 0.8956,1.25968 1.19983,1.17176 0.52255,-0.15101 -0.37339,-0.72924 -1.74605,-4.73735 -1.84395,-5.38428 -0.0297,-0.1965 -0.15708,-0.52233 -0.28298,-0.72407 -0.30583,-0.49006 -0.52962,-3.78134 -0.31521,-4.63564 0.35092,-1.39816 2.63656,-2.0503 3.6216,-1.03332 0.25545,0.26373 0.90386,1.31295 1.44092,2.3316 0.53705,1.01864 1.48669,2.74505 2.11031,3.83645 0.62362,1.09141 1.32063,2.34157 1.5489,2.77813 0.40859,0.7814 0.41516,0.78346 0.42263,0.13229 0.007,-0.56985 -0.80895,-5.8903 -1.2224,-7.97529 -0.20352,-1.02635 0.59773,-2.49598 1.62716,-2.98447 2.50896,-1.03802 3.95307,1.34575 4.78479,3.48967 0.53917,1.41641 1.62689,4.21135 2.41715,6.21098 0.25307,2.72298 1.65867,4.1146 2.35619,5.82815 l 0.76632,1.90656 0.19696,-2.2456 c 0.20465,-2.33331 0.75446,-4.45399 1.42577,-5.4994 0.56304,-0.87679 1.94198,-1.63888 2.96749,-1.64003 2.09897,-0.002 3.378,1.36425 4.02307,4.29849 0.37878,1.72297 0.64485,1.92395 0.85255,0.64403 0.88674,-3.11474 3.04264,-8.54855 6.72181,-7.73321 1.5007,0.57357 3.16616,1.94672 3.25923,4.16262 0,0.9691 0.41598,0.22697 1.18254,-2.10969 1.05954,-3.22974 2.39377,-4.55492 4.58603,-4.55492 3.71099,0.4539 3.84725,4.5921 3.9922,7.11518 l 0.1611,3.01413 1.37768,-2.09606 c 1.84733,-2.81061 2.79871,-3.47544 6.00217,-4.1943 6.01368,1.76394 7.35661,-9.48656 12.7952,-8.8519 1.00967,0.2268 2.18225,1.29338 2.18225,1.98499 0,0.73167 0.9959,0.4127 1.28302,-0.41091 0.30606,-0.87798 1.47293,-1.58393 1.90459,-1.15227 0.17407,0.17407 0.0371,0.52463 -0.40555,1.03793 -0.86759,1.00607 -2.96629,5.97544 -3.73261,8.83817 -0.5332,1.99187 -0.57086,2.47936 -0.33726,4.36563 0.53863,4.34928 0.55667,5.12829 0.14662,6.33172 -0.37784,1.1089 -0.36832,1.23862 0.17016,2.31958 0.32022,0.6428 0.56075,1.60914 0.54842,2.20331 -0.0326,1.57332 -0.63825,3.86612 -0.96744,3.66268 -0.16722,-0.10334 -0.20066,-0.0455 -0.0834,0.14433 0.19824,0.32076 -0.8192,1.85624 -1.82721,2.75752 -1.49393,1.33575 -4.37448,2.13958 -8.52396,2.37866 -0.90097,0.0519 -1.79393,0.22137 -1.98438,0.3766 -0.19044,0.15526 -0.76297,0.469 -1.2723,0.69723 -0.50932,0.22823 -1.42567,0.71152 -2.03634,1.074 -1.71637,1.01878 -3.87995,1.48926 -7.48866,1.62846 -1.81901,0.0702 -3.78354,0.16055 -4.36562,0.20084 -0.58208,0.0403 -1.74344,-0.54295 -1.85208,-0.10837 z m -15.81961,-34.04476 c 0.0879,-0.0879 -0.13154,-0.81528 -0.16015,-1.5692 -0.0571,-1.50502 1.68483,-10.63389 2.11032,-11.05939 0.3546,-0.3546 0.78492,0.34669 0.64483,1.05087 -0.21825,1.87619 -0.28983,3.34636 -0.41721,5.29386 l 0.68768,-1.45491 c 0.95213,-1.91441 0.29553,-2.91915 0.36997,-4.89509 0.045,-0.14552 0.12634,-0.60918 0.18072,-1.03035 0.23865,-1.84835 2.40773,-2.78795 4.42596,-1.91725 0.45855,0.19784 1.16734,0.49576 1.57509,0.66205 0.45591,0.18595 0.89583,0.67209 1.14258,1.26263 0.29858,0.71463 0.47781,0.88368 0.70062,0.66087 0.51382,-0.51382 1.45468,-0.32916 2.02645,0.39773 0.38565,0.49027 0.54837,1.08261 0.54837,1.99615 0,1.4186 0.73837,4.71505 1.05611,4.71505 1.20486,-1.61209 1.34227,-3.9222 2.724,-5.49011 0.7723,-0.84294 2.15258,-0.80973 2.72611,0.0656 0.38011,0.58013 0.39294,0.87341 0.10495,2.39968 -0.18044,0.95633 -0.25596,2.26498 -0.16781,2.9081 0.1694,1.034 -0.80602,2.7312 -1.38509,2.76257 -0.29104,0 -0.95861,-0.30202 -1.05687,-0.461 -0.10407,-0.16838 -0.0988,0.33433 -0.47441,0.96419 -2.57463,3.9843 -5.72825,-2.79781 -6.02282,-1.88205 -0.8927,0.86862 -1.50527,2.01375 -2.03522,2.71642 -1.18247,1.55165 -2.60999,1.40308 -3.38304,-0.35209 -0.27076,-0.61477 -0.91025,-1.54215 -0.9566,-2.17609 l -0.4643,-1.05834 -0.44758,0.99241 c -0.90026,1.10176 -2.23922,4.64742 -3.33971,4.69613 -0.33266,0 -0.80084,-0.11055 -0.71296,-0.19843 z M 278.92173,207.4233 c -2.0531,-1.05117 -2.3781,-3.121 -0.91796,-5.84623 4.35021,-3.65877 10.61513,-10.85171 15.51124,-13.79865 0.89052,-0.5208 2.80581,-1.9123 4.2562,-3.09222 3.61811,-2.94342 5.6615,-3.77181 6.61251,-2.6807 0.22197,0.25466 1.00976,1.21863 1.75065,2.14215 1.75531,2.188 4.43279,3.93483 7.68326,5.01266 3.52742,1.16967 5.81875,1.48994 10.66773,1.49109 4.2226,0.001 4.24095,-0.002 7.23583,-1.02283 4.5951,-1.5669 13.2616,-7.01987 14.56617,-9.16506 l 0.46647,-0.76705 2.6241,0.0968 c 2.36954,0.0874 3.14427,0.26473 7.98607,1.82757 3.55478,1.31635 7.88138,2.89801 10.31844,5.00885 2.50939,1.90268 3.1707,2.0583 5.59513,3.36592 4.98178,2.15261 13.12896,7.78794 13.19229,10.58281 0,0.97294 -0.71935,2.51863 -1.21377,3.18879 -0.3638,0.4931 -1.51905,0.96575 -1.51905,0.85905 -3.08941,1.83822 -4.50539,0.90958 -7.15321,0.001 -1.0914,-0.37948 -4.56351,-1.28776 -6.01872,-1.68314 -3.23005,-0.87762 -3.27735,-1.71217 -7.71516,-4.20555 -3.09263,-1.73759 -4.88084,-2.4699 -4.49103,-1.83917 0.078,0.12618 -0.27824,0.81406 -0.79161,1.52863 -2.27515,3.16684 -5.79605,3.97288 -9.29115,2.12702 -1.39271,-0.73553 -3.26624,-2.75512 -4.51214,-4.86392 -1.00388,-1.69915 -1.03919,-1.72762 -1.94845,-1.57053 -1.55967,0.26945 -5.54881,1.94695 -8.31758,3.49767 -2.35729,1.32026 -2.82221,1.48406 -4.49791,1.58467 -2.50072,0.15014 -3.89253,-0.54912 -4.88718,-2.4554 -0.37723,-0.72297 -0.71192,-1.36039 -0.74376,-1.41648 -0.0318,-0.0561 -0.36262,0.0977 -0.73508,0.34173 -1.49975,0.40795 -2.37193,1.44549 -3.80641,2.74694 -1.23159,1.13124 -3.97528,2.24158 -5.87491,2.37749 -1.49921,0.10727 -1.99111,0.0243 -3.23758,-0.5464 -0.80839,-0.37009 -1.61908,-0.91193 -1.80154,-1.2041 -0.31689,-0.50743 -0.42124,-0.45734 -2.33104,1.11899 -2.13138,1.4305 -4.82391,3.92416 -7.29009,4.30404 -2.25386,0.30893 -4.4779,-1.04959 -5.14693,-3.14393 l -0.3151,-0.98636 -0.75531,0.70572 c -1.0368,0.96872 -1.23677,1.12498 -2.13661,1.68206 -0.73281,0.45367 -1.49931,1.24456 -1.89949,1.49416 -0.40019,0.24961 -0.72761,0.54151 -0.72761,0.64866 -1.60802,1.39674 -4.03704,3.08973 -6.15692,3.127 -0.61831,-0.002 -1.61746,-0.25883 -2.23275,-0.57385 z m 171.10843,-81.95213 c 0,-0.13433 -0.35212,-0.59635 -0.78249,-1.02672 -2.01551,-2.0155 -6.76378,-3.69104 -9.53547,-3.36482 -1.91269,0.22512 -5.83502,1.14251 -6.20788,1.45196 -0.23879,0.19817 -3.4155,1.37626 -5.50004,2.03969 -0.43386,0.13808 -0.43661,0.0856 -0.0447,-0.85234 1.04761,-2.50728 -0.81245,-5.29411 -3.87937,-5.81226 l -1.14722,-0.19382 0.58401,-0.47291 c 0.32121,-0.2601 0.58402,-0.55636 0.58402,-0.65836 0,-0.102 0.48734,-0.76753 1.08297,-1.47895 l 1.08297,-1.29349 h -2.32235 c -1.81062,0 -2.5726,-0.12114 -3.45805,-0.54978 -1.15188,-0.58649 -2.66406,-2.60199 -2.84587,-3.52718 -0.77455,-5.3787 3.80095,-8.42363 6.59816,-11.274443 l 1.47502,-1.490578 -1.0571,-0.316716 c -2.80622,-1.133806 -3.92165,-3.955741 -2.70574,-6.786092 0.60161,-1.314952 2.28,-3.346614 2.55784,-3.096222 0.1134,0.102192 0.11475,0.02762 0.003,-0.165714 -0.11175,-0.193334 -0.40151,-1.205365 -0.64392,-2.248959 l -0.44074,-1.897438 -2.63965,-0.07631 c -1.45179,-0.04197 -2.81823,-0.150749 -3.03651,-0.241734 -1.17251,-0.437716 -2.75423,-1.652334 -3.22234,-2.552875 -0.77271,-1.514639 -0.595,-3.940548 0.39864,-5.442053 0.39987,-0.604237 0.82175,-1.040072 0.93752,-0.968523 0.11577,0.07155 0.21049,-0.04837 0.21049,-0.266486 0,-0.286766 -0.18926,-0.357161 -0.68351,-0.25423 -2.1573,0.449263 -8.46727,1.550874 -10.73767,1.874615 -3.9043,0.257773 -9.21481,1.279537 -11.21247,-2.43991 -0.1633,-0.317855 -0.29647,-1.210824 -0.29592,-1.984375 0.001,-1.452753 0.481,-2.545607 1.66176,-3.783608 0.63643,-0.667287 3.83242,-2.782223 4.20436,-2.782223 0.12585,0 0.68962,-0.290894 1.25283,-0.646428 0.56321,-0.355536 1.09662,-0.573817 1.18537,-0.485071 0.0887,0.08875 0.16136,0.02019 0.16136,-0.152363 0,-0.311764 -0.11141,-0.300953 -2.38125,0.231058 -1.66871,0.391115 -4.19329,0.576916 -5.29949,0.390025 -2.84328,-0.480369 -4.16251,-4.250483 -2.22054,-6.345901 0.36859,-0.397719 0.61521,-0.778084 0.54803,-0.845259 -0.0672,-0.06717 -0.57978,0.0049 -1.13913,0.160261 -1.39965,0.388646 -3.37784,0.356245 -4.40307,-0.07212 -0.47054,-0.196606 -1.24062,-0.796062 -1.71129,-1.332124 -0.75479,-0.85965 -0.85576,-1.156213 -0.85576,-2.513256 0,-2.478376 0.75722,-3.282939 5.21004,-5.535739 2.00942,-1.016622 4.01069,-2.03857 4.44725,-2.27099 0.43656,-0.232421 0.93407,-0.423318 1.10558,-0.424215 0.17151,-7.93e-4 0.47762,-0.16742 0.68025,-0.370054 0.20264,-0.202634 1.01481,-0.697433 1.80484,-1.099558 l 1.43641,-0.731133 -1.14229,-0.383638 c -0.96476,-0.324012 -1.60214,-0.333656 -4.10105,-0.06204 -1.62731,0.176876 -4.95434,0.295851 -7.3934,0.264387 l -4.43465,-0.0572 -1.06928,0.966031 c -0.58811,0.531315 -1.36847,1.079778 -1.73414,1.218806 -1.06473,0.404812 -3.31895,0.281839 -4.4771,-0.244237 -2.78225,-3.284243 -2.9229,-3.258797 -5.67922,-4.948042 -2.64995,-1.635855 -2.44927,-1.607738 -3.84869,-0.539199 -0.87112,1.076548 -2.66224,1.599417 -3.404,1.888685 -1.49332,0.57031 -5.16473,0.462066 -6.44308,-0.189957 -0.81726,-0.413554 -1.49734,0.427699 -2.41161,1.111379 -0.7753,0.582552 -2.52559,1.60201 -3.88952,2.265458 -4.02484,1.957784 -6.31587,1.592583 -7.79293,-1.242227 -0.17974,-0.344966 -0.35761,-0.664228 -0.39527,-0.709472 -0.0377,-0.04524 -0.92338,0.177411 -1.96827,0.494787 -2.29889,0.533307 -4.60789,0.627472 -5.80627,-0.759199 l -0.74943,-0.875839 -1.55492,0.399989 c -2.93627,0.75533 -4.95879,0.967904 -6.49937,0.683112 -1.36086,-0.251569 -1.56747,-0.2158 -3.21975,0.557397 -2.41953,0.858961 -4.27196,1.283618 -6.13831,1.459607 -1.95983,0.181864 -3.02378,-0.122716 -3.83248,-1.097139 -0.52324,-0.630468 -1.03864,-2.21886 -1.04332,-3.215407 -0.004,-0.870866 0.47139,-2.195261 0.78814,-2.195261 0.0979,0 0.18368,-0.148829 0.1906,-0.33073 0.007,-0.181901 0.099,-0.539088 0.20469,-0.79375 0.24868,-0.599339 -0.62596,-0.630123 -1.72695,-0.06079 -0.42781,0.221231 -0.86838,0.414089 -0.97904,0.428572 -0.11067,0.01447 -0.49887,0.142788 -0.86267,0.285115 -0.36381,0.142327 -1.71149,0.527254 -2.99485,0.855395 -1.87624,0.479732 -2.48523,0.762871 -3.10844,1.445191 -0.73284,0.773911 -0.50091,0.377919 -2.35887,1.868736 -2.35838,2.706672 -2.14173,3.061452 -3.5312,4.595334 -4.97729,5.482389 -5.55056,5.994421 -6.71137,5.994421 -0.67761,0 -1.32093,-0.199258 -1.76105,-0.545457 l -0.69343,-0.545457 -0.99589,0.742389 c -0.54774,0.408315 -1.05543,0.814541 -1.12819,0.902724 -0.37152,0.450265 -1.38995,0.761973 -1.99414,0.610333 -0.97443,-0.244568 -1.54646,-1.230135 -1.32827,-2.288514 0.0976,-0.473215 0.24278,-1.308034 0.32272,-1.855147 0.0986,-0.674925 0.51914,-1.410496 1.30794,-2.287833 0.63942,-0.711195 1.16259,-1.531258 1.16259,-1.822366 0,-0.291107 0.49932,-1.121608 1.10961,-1.845553 0.98144,-1.164225 1.11408,-1.480616 1.1484,-2.739128 0.024,-0.880827 0.40545,-2.450499 1.00125,-4.120435 0.52935,-1.483665 1.33782,-4.162571 1.7966,-5.953125 0.45879,-1.790555 0.98612,-3.555685 1.17187,-3.922511 1.82514,-2.447178 4.96427,-4.102818 7.74657,-5.181375 6.56855,-2.49315 14.86246,-3.203313 18.06568,-1.546868 0.75203,0.388892 0.76835,0.38286 0.76835,-0.284062 0,-0.374767 0.16549,-1.002901 0.36775,-1.395857 0.20227,-0.392957 0.42954,-1.177555 0.50506,-1.743557 0.17762,-1.331213 0.88853,-2.282938 2.18598,-2.926429 1.38829,-0.688549 2.59191,-0.662175 3.3755,0.07397 l 0.62792,0.589901 1.16525,-0.670692 c 1.85141,-1.065628 5.85972,-2.2385309 8.63267,-2.5260711 2.45921,-0.2550078 5.89404,-0.1060537 5.89404,0.2556 0,0.3045351 2.18602,0.1034597 3.70416,-0.3407159 2.31847,-0.6783316 7.83305,-1.2996044 10.18646,-1.1476071 1.70995,0.1104384 2.42171,0.030925 3.70417,-0.4138054 1.26886,-0.4400156 2.43851,-0.5743305 5.82737,-0.6691794 9.83917,-0.2753818 14.6354,1.9492803 16.01504,7.4283429 l 0.30662,1.217692 0.69945,-0.51476 c 1.30811,-0.962718 3.7461,-1.651072 5.8888,-1.662676 1.66486,-0.009 2.26737,0.112871 3.47254,0.702508 1.34586,0.658471 3.09687,2.296732 4.23233,3.959815 0.25236,0.369612 0.81755,0.750811 1.25599,0.847109 0.90143,0.197987 3.61901,2.112496 4.39011,3.092801 0.28032,0.356362 0.62873,0.699482 0.77425,0.76249 0.14552,0.06301 0.23625,0.199567 0.20161,0.303469 -0.0346,0.103904 0.0944,0.128537 0.28668,0.05474 0.38524,-0.147828 3.56771,0.461812 5.67028,1.08621 0.73835,0.219263 1.85738,0.82074 2.48673,1.336614 1.87614,1.537843 1.92748,1.576903 2.20262,1.675728 0.95973,0.344728 1.41626,0.666131 1.27374,0.896736 -0.0907,0.146725 -0.0419,0.190757 0.10845,0.09785 0.7353,-0.454444 3.28724,1.742992 3.82901,3.297102 0.15509,0.444889 0.91822,1.219382 1.89008,1.918218 0.89648,0.644637 2.10622,1.669603 2.6883,2.277706 0.58209,0.608105 1.51019,1.338836 2.06245,1.623851 0.55226,0.285012 1.44619,0.917601 1.98651,1.405752 0.78637,0.71043 1.29716,0.926872 2.55962,1.084606 1.91138,0.238811 2.99152,0.666293 3.75869,1.487554 1.31469,1.407369 1.48445,3.357393 0.45668,5.245748 -0.6595,1.211712 -0.6691,1.290942 -0.25377,2.094098 0.23741,0.459105 0.34817,0.980067 0.24613,1.157695 -0.10203,0.177628 -0.0821,0.228698 0.0443,0.113493 0.26711,-0.243443 6.55234,12.543985 6.85617,13.949041 0.0337,0.155837 0.20857,0.640528 0.3886,1.07709 2.03994,6.195398 3.2287,11.982638 4.58314,16.139583 0.57031,1.74625 1.38317,4.568952 1.80635,6.27267 0.42317,1.703718 1.13157,4.009345 1.5742,5.123616 0.88037,2.216208 2.11704,7.635412 2.75341,12.065762 0.78904,5.49318 2.04818,21.49303 1.53181,21.49303 -0.0579,0 -0.58868,-0.48269 -0.58868,-0.61702 z M 271.70557,95.42011 c -0.4025,-0.224719 -0.7457,-0.7352 -0.94031,-1.04774 -1.11132,-1.78473 -0.50434,-2.817 0.42428,-5.61765 1.62609,-4.18371 4.7173,-8.364734 9.17673,-8.813069 1.14045,-0.06763 3.39189,-1.093029 4.53203,-1.519218 0.58844,-0.219961 2.62325,-0.661029 4.52519,-0.790982 1.55657,-0.106354 2.44929,-0.0077 4.10572,0.453568 2.89705,0.806801 5.36264,1.314772 5.98507,2.088932 1.05907,0.283204 2.58067,1.474505 3.61187,1.23217 1.94751,-0.494659 2.60468,-0.421364 5.7365,0.639784 1.73944,0.58937 3.32471,1.071581 3.52283,1.071581 0.19812,0 0.95394,0.255413 1.6796,0.567584 2.21415,1.17404 3.31184,1.05962 5.17735,2.98068 1.86228,1.99777 3.19859,5.652008 0.65764,6.887457 l -2.27922,1.108189 -4.87875,0.32183 c -5.87121,0.387298 -12.36804,-1.155126 -15.58146,-0.475176 -2.72805,0.57725 -3.70404,0.49594 -8.95448,-0.98215 -1.65168,-0.46498 -4.51102,0.0129 -5.44062,0.76152 -0.53586,0.43152 -3.16661,0.55617 -5.27666,0.85278 -2.11005,0.29661 -4.13073,0.49524 -4.53076,0.5747 -0.61896,0.12294 -0.57148,0.08545 -0.95318,-0.12765 z m 126.99586,-1.22678 c 1.74997,0 -8.03967,-0.90254 -8.102,-1.01047 -0.13375,-0.23156 -1.16015,-0.18576 -2.23131,-0.41105 -2.84297,-0.59804 -8.62806,-1.06042 -9.04337,-0.72281 -0.18437,0.14988 -0.78533,0.52333 -1.33546,0.82987 -0.89844,0.50064 -0.98051,0.64108 -4.83521,0.6543 -2.36029,0.008 -11.66808,1.448803 -14.06918,1.572813 -13.74104,0.70969 -12.46383,1.032767 -13.48865,-0.561823 -0.30269,-0.470972 -0.13341,-0.96281 0.0507,-1.73464 0.29695,-1.24517 0.75381,-1.62609 2.88961,-3.73919 1.32392,-1.30984 2.88337,-2.61953 3.46545,-2.91041 0.58208,-0.29089 1.12684,-0.62135 1.21058,-0.73436 1.43535,-0.40131 2.43073,-0.87961 3.7652,-1.556832 1.32884,-0.678087 2.01457,-0.851101 3.6255,-0.914728 1.47967,-0.05844 2.48422,-0.283633 3.9362,-0.882383 1.07223,-0.442153 2.44041,-0.943549 3.04039,-1.114216 0.59999,-0.170664 1.20994,-0.348599 1.35546,-0.395406 1.90291,-0.612082 4.52777,-0.90564 6.80139,-0.760651 2.21627,0.141333 2.70556,0.09419 3.57188,-0.344114 3.31396,-1.676691 9.94682,-1.42839 16.40894,0.61427 2.27479,0.719055 4.63495,2.216941 5.44292,3.454376 0.32077,0.491257 0.88086,1.040584 1.24467,1.220734 0.90508,0.44817 2.91041,2.37163 2.91041,2.79159 0,0.18798 0.11347,0.34179 0.25215,0.34179 0.44831,0 0.78147,1.78711 0.51385,2.75635 -0.26124,0.94615 -1.82657,2.53531 -2.49729,2.53531 -0.21447,0 -0.88304,0.35719 -1.4857,0.79375 -1.2712,0.92086 -5.64032,0.22793 -3.39715,0.22793 z"
         id="path1366" />
    </g>
    <path
       style="fill:#c4a021;stroke-width:0.264583"
       d="m 6.6671947,255.47796 c -0.4982316,0 -1.01982,-0.64886 -1.25677,-0.98716 -0.4982,-0.71128 -0.56953,-2.64816 -0.12858,-3.49128 0.90549,-1.73141 2.45578,-3.78622 4.70986,-6.24263 2.5254003,-2.75209 3.8943703,-3.70992 5.3198703,-3.7222 0.37108,-0.003 0.80306,-0.13418 0.95996,-0.29108 0.1569,-0.1569 0.6272,-0.24619 1.0451,-0.19844 0.59385,0.0679 0.73957,0.20244 0.66704,0.616 -0.051,0.29104 -0.0727,1.32751 -0.0481,2.30326 0.0517,2.05218 -0.22566,2.77462 -2.26463,5.89882 -1.68331,2.57924 -3.01784,4.00849 -4.92553,5.27513 -1.6746503,1.11192 -2.7963153,0.83958 -4.0782103,0.83958 z M -32.130075,178.9765 c -2.26201,-1.53708 -2.32962,-4.36522 -0.15288,-6.39563 1.97354,-1.84089 10.03329,-3.75541 13.26064,-3.14995 0.51989,0.0975 1.33434,0.54079 1.80989,0.98501 0.47554,0.44423 1.28774,1.00692 1.80489,1.25042 1.11452,0.52479 1.21626,1.12044 0.23615,1.38256 -0.38726,0.10357 -1.2207,0.72231 -1.85208,1.37497 -1.04425,1.07944 -1.48677,1.29737 -4.8974,2.41178 -2.06219,0.6738 -4.50297,1.58159 -5.42396,2.01729 -2.10496,0.99581 -3.45048,1.03055 -4.78525,0.12355 z m 15.67842,-89.374073 c 0,-1.762797 -6.03556,-3.080779 -7.34229,-4.060206 -1.08911,-0.816319 -2.50373,-1.411253 -3.35563,-1.411253 -0.92564,0 -2.46624,-1.441447 -2.82679,-2.644849 -0.62231,-2.077072 0.33844,-3.96013 2.57218,-5.041466 0.99195,-0.480192 1.51908,-0.561226 2.97039,-0.456623 2.45079,0.176639 4.11681,1.097976 7.02457,3.8847 1.32703,1.271796 2.88903,2.598356 3.47112,2.947913 1.38178,0.829802 3.30729,2.605622 3.30729,3.050183 0,0.192249 0.29029,0.662778 0.6450997,1.04562 0.71907,0.775893 0.66629,1.227463 -0.1966397,1.682266 -0.31941,0.168346 -0.98531,0.601191 -1.47978,0.961879 -1.13809,0.83018 -4.78952,2.220288 -4.78952,0.04184 z"
       id="path1426" />
    <path
       style="fill:#92120d;stroke-width:0.264583"
       d="m 84.637048,230.69178 c -0.94588,-0.13149 -3.14854,-0.43002 -4.89479,-0.6634 -5.66752,-0.75745 -9.72354,-2.50185 -12.25337,-5.26989 -1.79527,-1.96431 -4.72713,-7.82651 -5.71412,-11.42528 -0.4042,-1.47379 -0.69304,-2.90022 -0.64186,-3.16983 0.15025,-0.79162 1.47237,-0.78964 2.3016,0.003 0.90399,0.86458 3.6887,1.35848 5.44288,0.96536 1.41628,-0.3174 3.79909,-1.56448 5.29451,-2.77098 3.0639,-2.47193 4.10025,-2.7178 4.63436,-1.09945 0.18028,0.54625 0.68806,1.13296 1.36301,1.57486 0.93126,0.60971 1.35133,0.70427 3.12874,0.70427 1.8484,0 2.23504,-0.0957 3.87886,-0.96012 1.00419,-0.52807 1.98847,-1.08991 2.18727,-1.24853 0.19881,-0.15863 0.73459,-0.431 1.19063,-0.60527 0.45604,-0.17427 1.87572,-0.75194 3.15486,-1.2837 3.12788,-1.30033 3.42086,-1.21835 5.18101,1.44969 2.775032,4.2064 6.444992,5.88615 10.107092,4.62604 1.0156,-0.34946 2.76881,-1.76683 3.89945,-3.15248 0.5483,-0.67195 0.82465,-0.23587 0.53597,0.84572 -0.34236,1.28266 -2.57953,5.99952 -3.83709,8.09016 -2.62781,4.36857 -7.02215,9.03139 -10.405842,11.0416 -3.28099,1.9492 -5.16992,2.46524 -9.2615,2.53018 -1.96453,0.0312 -4.34578,-0.0509 -5.29167,-0.18239 z"
       id="path1418" />
  </g>
</svg>
